<?xml version="1.0" standalone="no"?>
<!DOCTYPE svg PUBLIC "-//W3C//DTD SVG 20010904//EN"
 "http://www.w3.org/TR/2001/REC-SVG-20010904/DTD/svg10.dtd">
<svg version="1.0" xmlns="http://www.w3.org/2000/svg"
 width="1024.000000pt" height="1024.000000pt" viewBox="0 0 1024.000000 1024.000000"
 preserveAspectRatio="xMidYMid meet">
<metadata>
Created by potrace 1.11, written by Peter Selinger 2001-2013
</metadata>
<g transform="translate(0.000000,1024.000000) scale(0.100000,-0.100000)"
fill="#000000" stroke="none">
<path d="M4077 10234 c-1 -1 -67 -4 -147 -7 -80 -3 -156 -8 -170 -11 -14 -3
-56 -7 -95 -10 -38 -3 -79 -8 -91 -10 -12 -2 -45 -7 -75 -11 -80 -10 -235 -38
-299 -55 -19 -5 -46 -11 -60 -14 -94 -19 -352 -100 -465 -146 -11 -4 -36 -14
-55 -21 -33 -12 -65 -25 -185 -79 -94 -42 -334 -167 -345 -179 -3 -3 -21 -15
-40 -25 -55 -30 -253 -162 -277 -185 -12 -12 -25 -21 -29 -21 -6 0 -82 -57
-94 -70 -3 -3 -25 -21 -50 -40 -25 -19 -47 -37 -50 -40 -3 -3 -30 -25 -60 -50
-53 -43 -183 -165 -259 -241 -111 -113 -202 -210 -241 -259 -56 -69 -82 -100
-95 -114 -64 -68 -267 -363 -362 -526 -146 -250 -261 -517 -352 -815 -43 -141
-99 -378 -115 -490 -11 -77 -18 -122 -21 -145 -3 -14 -7 -47 -9 -75 -9 -86
-18 -179 -22 -210 -6 -47 -6 -565 0 -615 3 -25 10 -92 16 -150 10 -91 20 -166
45 -335 13 -82 67 -304 101 -414 20 -63 37 -122 39 -130 7 -31 96 -257 125
-319 17 -35 30 -65 30 -68 0 -17 148 -296 191 -362 16 -24 29 -45 29 -48 0 -5
83 -136 114 -179 71 -100 151 -206 175 -235 16 -19 63 -75 104 -125 125 -151
400 -422 552 -545 44 -35 85 -69 92 -75 22 -18 37 -30 113 -85 41 -30 77 -57
80 -60 5 -6 119 -80 185 -121 207 -126 491 -268 660 -328 33 -12 69 -26 80
-31 19 -8 107 -37 245 -79 57 -17 205 -52 350 -82 69 -14 227 -37 300 -45 36
-3 79 -7 95 -9 209 -25 638 -24 854 0 20 2 63 7 96 10 33 3 71 7 85 10 92 15
150 25 180 30 19 3 71 14 115 25 44 10 91 21 105 24 100 20 380 106 475 146
11 5 58 25 105 43 115 47 278 126 413 201 135 75 160 89 167 96 9 9 120 80
125 80 2 0 57 40 122 88 65 48 123 91 129 95 7 4 11 -41 11 -151 0 -241 12
-309 71 -406 26 -44 293 -316 1021 -1044 1116 -1114 1106 -1104 1163 -1133
146 -74 330 -69 472 15 36 21 610 583 688 673 33 38 60 91 83 162 22 67 22
208 1 269 -8 23 -12 42 -9 42 3 0 0 8 -9 18 -8 9 -19 29 -25 43 -17 39 -35 57
-1111 1135 -770 772 -1013 1009 -1058 1036 -103 60 -166 71 -401 71 -162 0
-166 1 -141 32 113 143 237 330 341 515 138 246 263 539 331 770 40 139 65
228 69 255 3 17 12 57 20 90 9 33 18 78 22 100 3 23 7 50 9 60 2 11 7 40 11
65 4 25 9 54 11 65 3 11 7 49 10 85 3 36 7 79 9 95 23 154 23 647 0 855 -2 19
-6 60 -9 90 -6 56 -10 84 -26 180 -5 30 -12 69 -14 85 -13 80 -17 101 -21 115
-3 8 -13 56 -24 105 -74 342 -271 820 -460 1115 -20 30 -36 57 -36 60 -1 7
-73 115 -106 160 -103 141 -141 190 -152 202 -7 7 -49 58 -94 113 -95 118
-405 431 -513 518 -41 34 -77 64 -80 67 -3 3 -27 23 -55 45 -27 21 -52 42 -55
45 -3 3 -18 14 -35 24 -16 11 -34 23 -40 28 -82 67 -275 190 -463 294 -73 41
-135 74 -138 74 -2 0 -51 22 -107 48 -185 88 -559 215 -724 247 -10 1 -36 8
-58 14 -40 10 -92 21 -130 26 -47 6 -182 27 -205 31 -14 2 -50 6 -80 9 -30 3
-73 8 -95 10 -92 10 -490 25 -498 19z m333 -1608 c364 -37 715 -144 975 -297
28 -16 59 -33 70 -38 39 -17 230 -154 319 -228 184 -153 396 -383 506 -548 19
-27 37 -52 40 -55 27 -19 193 -352 239 -479 58 -156 107 -345 126 -491 3 -19
7 -48 9 -65 13 -88 19 -181 20 -308 6 -485 -95 -890 -324 -1302 -36 -65 -159
-250 -188 -281 -9 -10 -32 -38 -51 -62 -18 -23 -45 -55 -60 -70 -14 -15 -49
-52 -77 -82 -120 -128 -297 -281 -413 -359 -30 -20 -68 -46 -85 -57 -18 -12
-54 -34 -81 -48 -28 -15 -63 -35 -80 -45 -186 -106 -520 -216 -775 -256 -198
-31 -549 -39 -725 -16 -49 6 -107 13 -129 16 -21 2 -46 7 -55 9 -9 3 -32 8
-51 11 -19 3 -43 8 -53 11 -11 3 -29 7 -40 9 -37 4 -227 66 -331 107 -121 48
-356 166 -356 179 0 5 -6 9 -12 9 -11 0 -39 17 -121 73 -149 100 -354 283
-482 427 -56 64 -192 247 -239 322 -53 84 -163 296 -181 350 -8 24 -20 53 -25
66 -24 53 -30 71 -50 132 -12 36 -23 72 -25 80 -53 215 -64 266 -71 330 -3 30
-7 62 -9 70 -16 57 -25 396 -14 540 23 302 108 646 210 843 16 31 27 57 25 57
-3 0 11 27 30 61 18 33 34 63 34 65 0 3 16 30 35 60 19 30 35 59 35 64 0 6 5
10 10 10 6 0 10 6 10 14 0 8 4 16 9 18 4 2 20 21 34 44 93 149 347 421 532
570 328 263 715 441 1105 508 14 2 36 7 50 10 30 6 117 16 225 25 92 7 373 6
455 -3z"/>
</g>
</svg>
